<?xml version="1.0" encoding="UTF-8" standalone="no"?>
<svg
   width="4259"
   height="2719"
   xml:space="preserve"
   overflow="hidden"
   version="1.1"
   id="svg79"
   sodipodi:docname="CBSim_logo.svg"
   inkscape:version="1.1 (c68e22c387, 2021-05-23)"
   xmlns:inkscape="http://www.inkscape.org/namespaces/inkscape"
   xmlns:sodipodi="http://sodipodi.sourceforge.net/DTD/sodipodi-0.dtd"
   xmlns="http://www.w3.org/2000/svg"
   xmlns:svg="http://www.w3.org/2000/svg"><sodipodi:namedview
     id="namedview81"
     pagecolor="#ffffff"
     bordercolor="#666666"
     borderopacity="1.0"
     inkscape:pageshadow="2"
     inkscape:pageopacity="0.0"
     inkscape:pagecheckerboard="0"
     showgrid="false"
     inkscape:zoom="13.494632"
     inkscape:cx="2219.7344"
     inkscape:cy="1623.4233"
     inkscape:window-width="2400"
     inkscape:window-height="1261"
     inkscape:window-x="-8"
     inkscape:window-y="-9"
     inkscape:window-maximized="1"
     inkscape:current-layer="g77" /><defs
     id="defs27"><filter
       id="fx0"
       x="-10%"
       y="-10%"
       width="120%"
       height="120%"
       filterUnits="userSpaceOnUse"
       primitiveUnits="userSpaceOnUse"><feComponentTransfer
         color-interpolation-filters="sRGB"
         id="feComponentTransfer10"><feFuncR
           type="discrete"
           tableValues="0 0"
           id="feFuncR2" /><feFuncG
           type="discrete"
           tableValues="0 0"
           id="feFuncG4" /><feFuncB
           type="discrete"
           tableValues="0 0"
           id="feFuncB6" /><feFuncA
           type="linear"
           slope="0.4"
           intercept="0"
           id="feFuncA8" /></feComponentTransfer><feGaussianBlur
         stdDeviation="6.35126 6.34798"
         id="feGaussianBlur12" /></filter><linearGradient
       x1="1486.5"
       y1="476"
       x2="1486.5"
       y2="1597"
       gradientUnits="userSpaceOnUse"
       spreadMethod="reflect"
       id="fill1"><stop
         offset="0"
         stop-color="#C00000"
         id="stop15" /><stop
         offset="0.3"
         stop-color="#C00000"
         stop-opacity="0.701961"
         id="stop17" /><stop
         offset="0.7"
         stop-color="#002060"
         stop-opacity="0.701961"
         id="stop19" /><stop
         offset="1"
         stop-color="#002060"
         id="stop21" /></linearGradient><clipPath
       id="clip2"><rect
         x="0"
         y="0"
         width="222"
         height="410"
         id="rect24" /></clipPath></defs><g
     transform="translate(-28 141)"
     id="g77"><rect
       x="1079"
       y="178"
       width="793"
       height="1689"
       fill="#F8E98C"
       id="rect29" /><rect
       x="1313"
       y="476"
       width="347"
       height="1121"
       fill="url(#fill1)"
       id="rect31" /><rect
       x="1603"
       y="927"
       width="126"
       height="149"
       fill="#F8E98C"
       id="rect33" /><path
       d="M381.512 309.299 832.578 309.299C920.696 309.299 964.755 353.666 964.755 442.4L964.755 780.7 749.39 780.7 749.39 495.086 469.322 495.086 469.322 1570.07 749.39 1570.07 749.39 1265.97 964.755 1265.97 964.755 1623.68C964.755 1711.79 920.696 1755.85 832.578 1755.85L381.512 1755.85C295.859 1755.85 253.032 1711.79 253.032 1623.68L253.032 442.4C253.032 353.666 295.859 309.299 381.512 309.299Z"
       stroke="#000000"
       stroke-width="7"
       stroke-linejoin="round"
       stroke-miterlimit="10"
       fill="#C00000"
       fill-rule="evenodd"
       id="path35" /><text
       fill="#000000"
       fill-opacity="0"
       font-family="Arial, Arial_MSFontService, sans-serif"
       font-size="1446.56px"
       x="255.96635"
       y="1599.3433"
       id="text37">C</text><g
       filter="url(#fx0)"
       transform="matrix(3.9955 0 0 3.99756 1032 213)"
       id="g43"><g
         clip-path="url(#clip2)"
         id="g41"><path
           d="M77.357-169.572 77.357-46.4614 147.874-46.4614 147.874-151.648 120.752-169.572ZM77.357-322.635 77.357-214.383 119.809-214.383 146.459-233.25 146.459-322.635ZM22.1694-369.097 168.629-369.097C190.484-369.097 201.411-357.776 201.411-335.135L201.411-240.09C201.411-227.511 197.48-217.763 189.619-210.845 188.518-209.902 178.927-203.848 160.846-192.685 179.556-181.207 189.462-174.918 190.562-173.817 199.053-166.428 203.298-156.286 203.298-143.393L203.298-33.7258C203.298-11.2419 192.056 0 169.572 0L22.1694 0Z"
           stroke="#000000"
           stroke-width="1.78609"
           stroke-linejoin="round"
           stroke-miterlimit="10"
           fill="#404040"
           fill-rule="evenodd"
           transform="matrix(1.00052 0 0 1 -1.79649 389.617)"
           id="path39" /></g></g><path
       d="M1351.04 1091.27 1351.04 1573.76 1627.41 1573.76 1627.41 1161.52 1521.11 1091.27ZM1351.04 491.389 1351.04 915.65 1517.42 915.65 1621.87 841.705 1621.87 491.389ZM1134.75 309.299 1708.75 309.299C1794.4 309.299 1837.23 353.666 1837.23 442.4L1837.23 814.9C1837.23 864.197 1821.83 902.402 1791.02 929.515 1786.7 933.212 1749.11 956.936 1678.25 1000.69 1751.58 1045.67 1790.4 1070.32 1794.71 1074.63 1827.99 1103.59 1844.63 1143.34 1844.63 1193.87L1844.63 1623.68C1844.63 1711.79 1800.57 1755.85 1712.45 1755.85L1134.75 1755.85Z"
       stroke="#000000"
       stroke-width="7"
       stroke-linejoin="round"
       stroke-miterlimit="10"
       fill="#404040"
       fill-rule="evenodd"
       id="path45" /><text
       fill="#000000"
       fill-opacity="0"
       font-family="Arial,Arial_MSFontService,sans-serif"
       font-size="1446.56"
       x="1134.75"
       y="1575.03"
       id="text47">B</text><path
       d="M2141.38 309.299 2576.73 309.299C2664.24 309.299 2707.99 353.05 2707.99 440.552L2707.99 764.062 2491.7 764.062 2491.7 491.389 2227.34 491.389 2227.34 752.971 2660.85 1161.52C2692.27 1191.1 2707.99 1230.23 2707.99 1278.91L2707.99 1623.68C2707.99 1711.79 2664.24 1755.85 2576.73 1755.85L2141.38 1755.85C2054.5 1755.85 2011.05 1711.79 2011.05 1623.68L2011.05 1278.91 2227.34 1278.91 2227.34 1573.76 2491.7 1573.76 2491.7 1290 2058.19 879.602C2026.77 849.408 2011.05 810.894 2011.05 764.062L2011.05 442.4C2011.05 353.666 2054.5 309.299 2141.38 309.299Z"
       stroke="#000000"
       stroke-width="7"
       stroke-linejoin="round"
       stroke-miterlimit="10"
       fill="#002060"
       fill-rule="evenodd"
       id="path49" /><text
       fill="#000000"
       fill-opacity="0"
       font-family="Arial,Arial_MSFontService,sans-serif"
       font-size="1446.56"
       x="2011.05"
       y="1575.03"
       id="text51">S</text><path
       d="M2901.11 856.494 3022.2 856.494 3022.2 1755.85 2901.11 1755.85ZM3642.96 850.948C3680.55 850.948 3708.28 862.348 3726.15 885.148 3777.91 878.37 3829.37 871.283 3880.51 863.889 3947.68 855.262 3998.52 850.948 4033.03 850.948 4100.81 850.948 4134.7 884.532 4134.7 951.699L4134.7 1755.85 4011.77 1755.85 4011.77 966.488 3743.72 973.882 3743.72 1755.85 3621.71 1755.85 3621.71 966.488 3353.65 973.882 3353.65 1755.85 3230.72 1755.85 3230.72 856.494 3353.65 856.494 3353.65 881.451C3401.72 875.289 3449.78 868.818 3497.85 862.04 3556.39 854.645 3604.76 850.948 3642.96 850.948ZM2899.27 504.33 3024.05 504.33 3024.05 659.615 2899.27 659.615Z"
       stroke="#000000"
       stroke-width="7"
       stroke-linejoin="round"
       stroke-miterlimit="10"
       fill="#404040"
       fill-rule="evenodd"
       id="path53" /><text
       fill="#000000"
       fill-opacity="0"
       font-family="Arial,Arial_MSFontService,sans-serif"
       font-size="1251.52"
       x="2899.27"
       y="1599.41"
       id="text55">im</text><path
       d="M676.5 1426.5 676.5 1283.5 858 1140.5 1039.5 1283.5 1039.5 1426.5 858 1283.5Z"
       stroke="#000000"
       stroke-width="6.875"
       stroke-miterlimit="8"
       fill="#C00000"
       fill-rule="evenodd"
       id="path57" /><path
       d="M1938.5 1426.5 1938.5 1283.5 2120 1140.5 2301.5 1283.5 2301.5 1426.5 2120 1283.5Z"
       stroke="#000000"
       stroke-width="6.875"
       stroke-miterlimit="8"
       fill="#002060"
       fill-rule="evenodd"
       id="path59" /><rect
       x="752.90564"
       y="1276.8857"
       width="208.31664"
       height="178.3998"
       fill="#c00000"
       id="rect61"
       style="stroke-width:1.17236" /><rect
       x="2014.6523"
       y="1271"
       width="209.19949"
       height="198.47168"
       fill="#002060"
       id="rect63"
       style="stroke-width:1.23323" /><text
       font-family="Agency FB,Agency FB_MSFontService,sans-serif"
       font-weight="700"
       font-stretch="condensed"
       font-size="353"
       transform="matrix(1 0 0 1 240.601 2290)"
       id="text65">C</text><text
       font-family="Agency FB,Agency FB_MSFontService,sans-serif"
       font-weight="400"
       font-stretch="condensed"
       font-size="353"
       transform="matrix(1 0 0 1 405.028 2290)"
       id="text67">arnot </text><text
       font-family="Agency FB,Agency FB_MSFontService,sans-serif"
       font-weight="700"
       font-stretch="condensed"
       font-size="353"
       transform="matrix(1 0 0 1 1079.92 2290)"
       id="text69">B</text><text
       font-family="Agency FB,Agency FB_MSFontService,sans-serif"
       font-weight="400"
       font-stretch="condensed"
       font-size="353"
       transform="matrix(1 0 0 1 1243.78 2290)"
       id="text71">attery </text><text
       font-family="Agency FB,Agency FB_MSFontService,sans-serif"
       font-weight="700"
       font-stretch="condensed"
       font-size="353"
       transform="matrix(1 0 0 1 1995.44 2290)"
       id="text73">S</text><text
       font-family="Agency FB,Agency FB_MSFontService,sans-serif"
       font-weight="400"
       font-stretch="condensed"
       font-size="353"
       transform="matrix(1 0 0 1 2157.01 2290)"
       id="text75">imulator </text></g></svg>
